# xmcd
#
# Track frame offsets:
#	150
#	18742
#	33025
#	49207
#	65592
#	83025
#	101127
#	115082
#	129220
#	142030
#	153742
#	167135
#	182420
#	198627
#	216267
#
# Disc length: 3104 seconds
#
# Revision: 7
# Processed by: cddbd v1.5.2PL0 Copyright (c) Steve Scherf et al.
# Submitted via: EasyCDDAExtractor 15.3.0.1
#
DISCID=d50c1e0f
DTITLE=Yuri - 15 Exitos Originales
DYEAR=1989
DGENRE=Latin
TTITLE0=Esperanzas
TTITLE1=Dame Un Beso
TTITLE2=Primer Amor
TTITLE3=Dejala
TTITLE4=Es Ella Mas Que Yo
TTITLE5=Este Amor No Se Toca
TTITLE6=Y Ahora Juntos (A Duo Con Oscar Athie)
TTITLE7=Que Te Pasa
TTITLE8=Mama Dame
TTITLE9=No Se Que Tienes Tu
TTITLE10=Deja
TTITLE11=Tiempos Mejores
TTITLE12=Un Corazon Herido
TTITLE13=Maldita Primavera
TTITLE14=Yo Te Pido Amor
EXTD=YEAR: 1989
EXTT0=
EXTT1=
EXTT2=
EXTT3=
EXTT4=
EXTT5=
EXTT6=
EXTT7=
EXTT8=
EXTT9=
EXTT10=
EXTT11=
EXTT12=
EXTT13=
EXTT14=
PLAYORDER=
